# xmcd
#
# Track frame offsets:
#	150
#	16791
#	27172
#	45905
#	62031
#	74184
#	102939
#	118067
#	131127
#	143310
#
# Disc length: 2315 seconds
#
# Revision: 0
# Processed by: cddbd v1.5.2PL0 Copyright (c) Steve Scherf et al.
# Submitted via: FairStars CD Ripper 1.70
#
DISCID=8509090a
DTITLE=Tim Keegan - The Long Game
DYEAR=2015
DGENRE=Country
TTITLE0=New Songs
TTITLE1=Dear Heart
TTITLE2=The Loneliness Of Cowardice
TTITLE3=I Can't Wait
TTITLE4=The Man Who Thought He Knew To Much
TTITLE5=Drinking Alone At The School Reunion
TTITLE6=Trouble Again
TTITLE7=You Can't Go Back And Get It (If It's Gone)
TTITLE8=Honeysuckle Rose
TTITLE9=The Fine Art Of Forgetting
EXTD=
EXTT0=
EXTT1=
EXTT2=
EXTT3=
EXTT4=
EXTT5=
EXTT6=
EXTT7=
EXTT8=
EXTT9=
PLAYORDER=
